<?xml version="1.0" encoding="utf-8"?>
<!-- Generator: Adobe Illustrator 22.0.0, SVG Export Plug-In . SVG Version: 6.00 Build 0)  -->
<svg version="1.1" id="Layer_1" xmlns="http://www.w3.org/2000/svg" xmlns:xlink="http://www.w3.org/1999/xlink" x="0px" y="0px"
	 viewBox="0 0 240.9 240.9" style="enable-background:new 0 0 240.9 240.9;" xml:space="preserve">
<style type="text/css">
	.st0{fill:#151515;stroke:#844292;stroke-miterlimit:10;}
	.st1{fill:#151515;stroke:#E10B7C;stroke-width:1.5;stroke-miterlimit:10;}
	.st2{fill:#151515;stroke:#C61617;stroke-width:1.5;stroke-miterlimit:10;}
	.st3{fill:#151515;stroke:#DC6A11;stroke-width:1.5;stroke-miterlimit:10;}
	.st4{fill:#151515;stroke:#E7D000;stroke-width:1.5;stroke-miterlimit:10;}
	.st5{fill:#151515;stroke:#58AF31;stroke-width:1.5;stroke-miterlimit:10;}
	.st6{fill:#151515;stroke:#3DBCDA;stroke-width:1.5;stroke-miterlimit:10;}
</style>
<g>
	<path class="st0" d="M97.5,136l-25.9-16.3c-1.7-1.1-2.5-2-2.5-3.5v-0.2c0-1.5,0.8-2.4,2.5-3.5l25.9-16.4c1.7-1.1,3.4-0.6,4.4,1
		c1.1,1.6,0.5,3.4-1,4.4l-23.5,14.6l23.5,14.7c1.5,1,2,2.7,1,4.4C100.9,136.8,99.2,137.1,97.5,136z"/>
	<path class="st0" d="M108.1,147.4c-1.9-0.6-2.6-2.2-1.9-4.1L127.4,85c0.7-1.9,2.2-2.8,4-2.1c1.8,0.6,2.6,2.3,1.9,4.2l-21.1,58.3
		C111.4,147.2,109.8,148,108.1,147.4z"/>
	<path class="st0" d="M137.6,135.2c-1.1-1.7-0.5-3.4,1-4.4l23.5-14.7l-23.5-14.6c-1.5-1-2-2.8-1-4.4c1-1.6,2.7-2,4.4-1l25.9,16.4
		c1.7,1.1,2.5,2,2.5,3.5v0.2c0,1.6-0.8,2.4-2.5,3.5L142,136C140.3,137.1,138.6,136.8,137.6,135.2z"/>
</g>
<path class="st1" d="M132.5,0.8c0,0,27.7,13.9,38.6,67.3c8.7,42.4,5,71.6,3,80.2c0,0,25.7-21.4,34.4-33.2c7-9.4,19.6-30,17.8-42.4
	c-1.7-12.2-17.3-36-35.8-49.5S138.3,0.3,132.5,0.8z"/>
<path class="st2" d="M230,71.1c0,0,1.9,30.8-38.6,67.2c-32.2,28.9-59.3,40.5-67.7,43.1c0,0,31.4,11.3,45.9,12.8
	c11.6,1.2,35.7,1.7,45.6-6.1c9.6-7.6,22.4-33.1,24.7-55.8S233.3,75.8,230,71.1z"/>
<path class="st3" d="M216.5,191c0,0-26,17-77.7-0.4c-41-13.8-64.4-31.8-70.8-37.8c0,0,5.5,33,11.2,46.5c4.6,10.8,16,32.1,27.6,36.8
	c11.4,4.7,39.9,3.1,60.8-6.1C188.6,220.8,214,196.2,216.5,191z"/>
<path class="st4" d="M106.6,240.1c0,0-27.6-13.8-38.6-67.2c-8.8-42.4-5.2-71.6-3.2-80.2c0,0-25.5,21.4-34.1,33.3
	c-6.9,9.4-19.3,30-17.6,42.5c1.7,12.2,17.3,36,35.7,49.3S100.9,240.6,106.6,240.1z"/>
<path class="st5" d="M9.9,167.6c0,0-1.3-31,40-66.6c32.8-28.2,60.1-39.2,68.6-41.6c0,0-31.2-12.1-45.7-14c-11.6-1.5-35.7-2.5-45.7,5
	c-9.8,7.4-23,32.7-25.8,55.4S6.7,162.9,9.9,167.6z"/>
<path class="st6" d="M22.8,48.2c0,0,25.4-16.6,77.1,0.4c41.1,13.5,64.7,31,71.3,37c0,0-6.3-32.3-12.4-45.5
	C154,29.4,142.2,8.6,130.5,4c-11.4-4.6-39.7-3-60.2,6S25.2,43,22.8,48.2z"/>
</svg>
