<?xml version="1.0" encoding="utf-8"?>
<!-- Generator: Adobe Illustrator 22.0.0, SVG Export Plug-In . SVG Version: 6.00 Build 0)  -->
<svg version="1.1" id="Layer_1" xmlns="http://www.w3.org/2000/svg" xmlns:xlink="http://www.w3.org/1999/xlink" x="0px" y="0px"
	 viewBox="0 0 891.2 217" style="enable-background:new 0 0 891.2 217;" xml:space="preserve">
<style type="text/css">
	.st0{fill:#1D1D1B;}
	.st1{fill:#151515;stroke:#844292;stroke-miterlimit:10;}
	.st2{fill:#151515;stroke:#E10B7C;stroke-width:1.5;stroke-miterlimit:10;}
	.st3{fill:#151515;stroke:#C61617;stroke-width:1.5;stroke-miterlimit:10;}
	.st4{fill:#151515;stroke:#DC6A11;stroke-width:1.5;stroke-miterlimit:10;}
	.st5{fill:#151515;stroke:#E7D000;stroke-width:1.5;stroke-miterlimit:10;}
	.st6{fill:#151515;stroke:#58AF31;stroke-width:1.5;stroke-miterlimit:10;}
	.st7{fill:#151515;stroke:#3DBCDA;stroke-width:1.5;stroke-miterlimit:10;}
</style>
<g>
	<path class="st0" d="M273.6,168.1h-34.5c-2,0-3.5-1.3-3.5-3.3v-4c0-2,1.5-3.2,3.5-3.2h11.5V62.3h-11.5c-2,0-3.5-1.2-3.5-3.2v-4
		c0-2,1.5-3.3,3.5-3.3H267c4,0,5.8,1.7,7.3,5.3l22.8,57.1L320,57.2c1.5-3.7,3.2-5.3,7.1-5.3h27.4c2.2,0,3.5,1.3,3.5,3.3v4
		c0,2-1.3,3.2-3.5,3.2h-11.5v95.3h11.5c2.2,0,3.5,1.2,3.5,3.2v4c0,2-1.3,3.3-3.5,3.3h-37.2c-2,0-3.3-1.3-3.3-3.3v-4
		c0-2,1.3-3.2,3.3-3.2h11.6V63.8l-27.6,67.4c-1.3,3.3-3.3,4.6-6,4.6c-2.5,0-4.5-1.3-5.8-4.6L262,63.8v93.8h11.6c2,0,3.5,1.2,3.5,3.2
		v4C277.1,166.8,275.6,168.1,273.6,168.1z"/>
	<path class="st0" d="M449.5,168.1h-75.7c-2,0-3.5-1.3-3.5-3.3v-4c0-2,1.5-3.2,3.5-3.2h11.5V62.3h-11.5c-2,0-3.5-1.2-3.5-3.2v-4
		c0-2,1.5-3.3,3.5-3.3h75.7c3.2,0,5,1.8,5,5.1v25.1c0,2.5-1.3,4.2-3.8,4.2h-3.8c-2.3,0-4-1.7-4-4.2V62h-43.3v41.5h29.4
		c3,0,5.1,2,5.1,4.8v1.2c0,2.8-2.2,4.8-5.1,4.8h-29.4V158h43.3v-21.8c0-2.5,1.7-4,4-4h3.8c2.5,0,3.8,1.5,3.8,4V163
		C454.5,166.3,452.7,168.1,449.5,168.1z"/>
	<path class="st0" d="M547.6,166.6l-34-47.3c-1.5-2.2-2-3.5-2-5.1v-0.3c0-2.3,1.3-3.7,4-3.7h7.8c13.8,0,21.9-5.5,21.9-17.4V79.6
		c0-11.8-8.1-17.4-22.1-17.4h-23.1v95.5h11.5c2,0,3.3,1.2,3.3,3.2v4c0,2-1.3,3.3-3.3,3.3h-37.2c-2,0-3.5-1.3-3.5-3.3v-4
		c0-2,1.5-3.2,3.5-3.2h11.5V62.3h-11.5c-2,0-3.5-1.2-3.5-3.2v-4c0-2,1.5-3.3,3.5-3.3h48.8c23.2,0,36.5,9.5,36.5,27.9v12.6
		c0,16.4-10.6,25.4-29.9,26.9l29.4,39.5c2.5,3.5,1.5,7.6-2,9.8C554.1,170.6,550,169.9,547.6,166.6z"/>
</g>
<g>
	<path class="st0" d="M577,165.7v-4c0-2,1.8-3,3.8-3l11.1,0l-0.1-95.3h-11.6c-2,0-3.3-1.2-3.3-3.2v-3.9c0-2,1.3-3.3,3.3-3.3l47.9,0
		c21.3,0,37.9,6.3,37.5,30.5l0,10.2c0,19.9-15.7,27.2-38,27l-21.5,0.3v37.8l11.2,0c2.2,0,3.3,1.1,3.3,3.1l0.1,3.9
		c0,2-1.1,3.5-3.3,3.5l-37.6-0.2C578.1,168.9,577,167.7,577,165.7z M628,111.2c14.6,0,23.4-4.7,23.4-17.6l0-10.2
		c0.1-15.9-8.3-20.1-23.1-20.1h-22v47.9L628,111.2z"/>
	<path class="st0" d="M678,56.2c0-2,1.5-3.3,3.5-3.3h37.2c2,0,3.3,1.3,3.3,3.3v4c0,2-1.3,3.2-3.3,3.2h-11.5v40.5h50.3V63.3h-11.5
		c-2,0-3.5-1.2-3.5-3.2v-4c0-2,1.5-3.3,3.5-3.3h37.2c2.2,0,3.5,1.3,3.5,3.3v4c0,2-1.3,3.2-3.5,3.2h-11.5v95.3h11.5
		c2.2,0,3.5,1.2,3.5,3.2v4c0,2-1.3,3.3-3.5,3.3h-37.2c-2,0-3.5-1.3-3.5-3.3v-4c0-2,1.5-3.2,3.5-3.2h11.5v-44.3h-50.3v44.3h11.5
		c2,0,3.3,1.2,3.3,3.2v4c0,2-1.3,3.3-3.3,3.3h-37.2c-2,0-3.5-1.3-3.5-3.3v-4c0-2,1.5-3.2,3.5-3.2h11.5V63.3h-11.5
		c-2,0-3.5-1.2-3.5-3.2V56.2z"/>
	<path class="st0" d="M847.9,51c27.1,0,43.3,13.8,43.3,39.5v40.9c0,25.7-16.3,39.5-43.3,39.5c-26.9,0-43.3-13.8-43.3-39.5V90.6
		C804.5,64.8,821,51,847.9,51z M847.9,160c18.9,0,28.7-9.5,28.7-27.7V89.7c0-18.3-9.8-27.7-28.7-27.7c-18.9,0-28.7,9.5-28.7,27.7
		v42.5C819.2,150.5,828.9,160,847.9,160z"/>
</g>
<g>
	<path class="st1" d="M87.8,122.6l-23.3-14.7c-1.5-1-2.2-1.8-2.2-3.1v-0.2c0-1.4,0.7-2.2,2.2-3.1l23.3-14.7c1.5-1,3-0.6,3.9,0.9
		c1,1.4,0.5,3-0.9,3.9l-21.2,13.1l21.2,13.2c1.4,0.9,1.8,2.4,0.9,3.9C90.9,123.2,89.4,123.5,87.8,122.6z"/>
	<path class="st1" d="M97.4,132.8c-1.7-0.6-2.3-2-1.7-3.7l19-52.5c0.6-1.7,2-2.5,3.6-1.9c1.6,0.6,2.3,2.1,1.7,3.8L101,131
		C100.4,132.6,99,133.3,97.4,132.8z"/>
	<path class="st1" d="M124,121.8c-1-1.5-0.5-3,0.9-3.9l21.2-13.2l-21.2-13.1c-1.4-0.9-1.8-2.5-0.9-3.9c0.9-1.4,2.4-1.8,3.9-0.9
		l23.3,14.7c1.5,1,2.2,1.8,2.2,3.1v0.2c0,1.4-0.7,2.2-2.2,3.1l-23.3,14.7C126.4,123.5,124.9,123.2,124,121.8z"/>
</g>
<path class="st2" d="M119.4,0.8c0,0,24.9,12.5,34.8,60.6c7.8,38.2,4.5,64.5,2.7,72.2c0,0,23.1-19.2,31-29.8c6.3-8.5,17.6-27,16-38.2
	c-1.5-10.9-15.6-32.4-32.2-44.5S124.5,0.3,119.4,0.8z"/>
<path class="st3" d="M207.1,64.1c0,0,1.7,27.8-34.8,60.5c-29,26-53.4,36.4-61,38.8c0,0,28.2,10.2,41.4,11.6
	c10.5,1.1,32.2,1.5,41-5.5c8.7-6.8,20.1-29.8,22.2-50.2C218,98.9,210.1,68.3,207.1,64.1z"/>
<path class="st4" d="M195,172c0,0-23.4,15.3-69.9-0.4c-36.9-12.4-58-28.6-63.7-34.1c0,0,4.9,29.7,10.1,41.9
	c4.1,9.7,14.4,28.9,24.9,33.2c10.2,4.2,35.9,2.8,54.7-5.5S192.8,176.7,195,172z"/>
<path class="st5" d="M96.1,216.3c0,0-24.8-12.5-34.8-60.5c-7.9-38.1-4.7-64.5-2.9-72.2c0,0-22.9,19.3-30.7,29.9
	c-6.2,8.5-17.4,27.1-15.8,38.2c1.5,10.9,15.6,32.4,32.2,44.4C60.5,208.2,90.9,216.7,96.1,216.3z"/>
<path class="st6" d="M9,151c0,0-1.2-27.9,36-59.9c29.5-25.4,54.2-35.3,61.8-37.5c0,0-28.1-10.9-41.2-12.6
	c-10.5-1.4-32.2-2.3-41.2,4.5C15.6,52.2,3.7,74.9,1.2,95.4S6.1,146.7,9,151z"/>
<path class="st7" d="M20.6,43.4c0,0,22.9-15,69.4,0.3c37,12.1,58.3,27.9,64.2,33.3c0,0-5.7-29.1-11.1-41
	c-4.4-9.5-15.1-28.2-25.5-32.4c-10.3-4.1-35.7-2.7-54.2,5.4S22.7,38.8,20.6,43.4z"/>
</svg>
